<?xml version="1.0" encoding="UTF-8" standalone="no"?>
<!-- Created with Inkscape (http://www.inkscape.org/) -->

<svg
   width="128.0px"
   height="128.0px"
   viewBox="0 0 128.0 128.0"
   version="1.1"
   id="SVGRoot"
   sodipodi:docname="deiko-logo.svg"
   inkscape:version="1.1.1 (26b7af14f2, 2022-01-19)"
   xmlns:inkscape="http://www.inkscape.org/namespaces/inkscape"
   xmlns:sodipodi="http://sodipodi.sourceforge.net/DTD/sodipodi-0.dtd"
   xmlns="http://www.w3.org/2000/svg"
   xmlns:svg="http://www.w3.org/2000/svg">
  <sodipodi:namedview
     id="namedview95595"
     pagecolor="#ffffff"
     bordercolor="#666666"
     borderopacity="1.0"
     inkscape:pageshadow="2"
     inkscape:pageopacity="0.0"
     inkscape:pagecheckerboard="0"
     inkscape:document-units="px"
     showgrid="true"
     inkscape:zoom="2.997406"
     inkscape:cx="74.898095"
     inkscape:cy="63.721765"
     inkscape:window-width="1366"
     inkscape:window-height="746"
     inkscape:window-x="0"
     inkscape:window-y="1"
     inkscape:window-maximized="1"
     inkscape:current-layer="layer1">
    <inkscape:grid
       type="xygrid"
       id="grid95601" />
  </sodipodi:namedview>
  <defs
     id="defs95590" />
  <g
     inkscape:label="Layer 1"
     inkscape:groupmode="layer"
     id="layer1">
    <ellipse
       style="fill:#501616;stroke-width:3.96435"
       id="path32025"
       cx="64.158287"
       cy="63.784271"
       rx="62.562035"
       ry="64.30896" />
    <path
       style="fill:#550000"
       id="path32049"
       sodipodi:type="arc"
       sodipodi:cx="50.472839"
       sodipodi:cy="59.764961"
       sodipodi:rx="21.505701"
       sodipodi:ry="20.096552"
       sodipodi:start="6.2364569"
       sodipodi:end="4.8848504"
       sodipodi:arc-type="arc"
       sodipodi:open="true"
       d="M 71.955065,58.826223 A 21.505701,20.096552 0 0 1 58.542127,78.393205 21.505701,20.096552 0 0 1 34.340682,73.054527 21.505701,20.096552 0 0 1 31.70767,49.947915 21.505701,20.096552 0 0 1 54.163385,39.966535" />
    <path
       style="fill:#550000"
       id="path32049-7"
       sodipodi:type="arc"
       sodipodi:cx="44.607651"
       sodipodi:cy="75.842194"
       sodipodi:rx="21.505701"
       sodipodi:ry="20.096552"
       sodipodi:start="6.2364569"
       sodipodi:end="4.8848504"
       sodipodi:arc-type="arc"
       sodipodi:open="true"
       d="M 66.089877,74.903455 A 21.505701,20.096552 0 0 1 52.676939,94.470437 21.505701,20.096552 0 0 1 28.475494,89.131759 21.505701,20.096552 0 0 1 25.842481,66.025147 21.505701,20.096552 0 0 1 48.298196,56.043767" />
    <path
       style="fill:#550000"
       id="path32049-5"
       sodipodi:type="arc"
       sodipodi:cx="60.248158"
       sodipodi:cy="67.803581"
       sodipodi:rx="21.505701"
       sodipodi:ry="20.096552"
       sodipodi:start="6.2364569"
       sodipodi:end="4.8848504"
       sodipodi:arc-type="arc"
       sodipodi:open="true"
       d="M 81.730384,66.864843 A 21.505701,20.096552 0 0 1 68.317445,86.431825 21.505701,20.096552 0 0 1 44.116,81.093147 21.505701,20.096552 0 0 1 41.482988,57.986535 21.505701,20.096552 0 0 1 63.938703,48.005155" />
    <path
       style="fill:#501616"
       id="path32049-3"
       sodipodi:type="arc"
       sodipodi:cx="48.517776"
       sodipodi:cy="95.938736"
       sodipodi:rx="21.505701"
       sodipodi:ry="20.096552"
       sodipodi:start="6.2364569"
       sodipodi:end="4.8848504"
       sodipodi:arc-type="arc"
       sodipodi:open="true"
       d="M 70.000003,94.999998 A 21.505701,20.096552 0 0 1 56.587064,114.56698 21.505701,20.096552 0 0 1 32.385619,109.2283 21.505701,20.096552 0 0 1 29.752607,86.12169 21.505701,20.096552 0 0 1 52.208322,76.140309" />
    <path
       style="fill:#550000"
       id="path32098"
       sodipodi:type="arc"
       sodipodi:cx="50.472839"
       sodipodi:cy="55.745655"
       sodipodi:rx="1.9550636"
       sodipodi:ry="4.01931"
       sodipodi:start="0"
       sodipodi:end="6.27582"
       sodipodi:arc-type="slice"
       d="m 52.427903,55.745655 a 1.9550636,4.01931 0 0 1 -1.951464,4.019303 1.9550636,4.01931 0 0 1 -1.95865,-4.004501 1.9550636,4.01931 0 0 1 1.944251,-4.034051 1.9550636,4.01931 0 0 1 1.96581,3.989646 l -1.955011,0.0296 z" />
    <path
       style="fill:#550000"
       id="path32100"
       sodipodi:type="arc"
       sodipodi:cx="77.843727"
       sodipodi:cy="65.793922"
       sodipodi:rx="1.9550636"
       sodipodi:ry="2.009655"
       sodipodi:start="0"
       sodipodi:end="4.884845"
       sodipodi:open="true"
       sodipodi:arc-type="arc"
       d="m 79.798791,65.793922 a 1.9550636,2.009655 0 0 1 -1.285439,1.888101 1.9550636,2.009655 0 0 1 -2.165985,-0.594721 1.9550636,2.009655 0 0 1 -0.198295,-2.295495 1.9550636,2.009655 0 0 1 2.030149,-0.977729" />
    <path
       style="fill:#550000"
       id="path32102"
       sodipodi:type="arc"
       sodipodi:cx="66.11335"
       sodipodi:cy="77.851852"
       sodipodi:rx="1.9550636"
       sodipodi:ry="2.009655"
       sodipodi:start="0"
       sodipodi:end="4.884845"
       sodipodi:open="true"
       sodipodi:arc-type="arc"
       d="m 68.068413,77.851852 a 1.9550636,2.009655 0 0 1 -1.285438,1.888101 1.9550636,2.009655 0 0 1 -2.165985,-0.594721 1.9550636,2.009655 0 0 1 -0.198295,-2.295495 1.9550636,2.009655 0 0 1 2.030149,-0.977729" />
    <path
       style="fill:#501616;stroke-width:0.213908"
       d="m 41.577457,112.10445 -3.375722,-1.74696 -3.639452,-5.61367 -3.639449,-5.61368 v -5.966951 -5.96695 L 29.02399,83.297064 27.125147,79.397913 v -5.374435 -5.374435 l 1.898843,-1.942829 1.898844,-1.942829 v -2.120266 -2.12029 l 3.587307,-7.372478 3.587307,-7.372453 h 1.865631 1.86563 l 3.988534,-6.174645 3.988536,-6.174621 4.984364,-1.715194 4.984372,-1.715217 8.99323,9.246241 8.993231,9.246218 v 3.147444 3.147419 l -2.32081,2.378231 c -1.276446,1.30802 -2.320809,2.479129 -2.320809,2.602475 0,0.123466 1.044363,1.294479 2.320809,2.602499 l 2.32081,2.378207 v 5.108565 5.108566 l -3.533962,3.595693 -3.533956,3.595693 -6.962428,2.330444 c -3.829333,1.281727 -7.005547,2.371783 -7.058248,2.422364 -0.05272,0.05063 2.012288,2.260496 4.58887,4.910996 l 4.684695,4.819078 v 3.253738 3.253718 l -3.533957,3.61188 -3.533961,3.61186 -3.425983,1.75338 -3.425986,1.75336 -3.53644,-0.0119 -3.536442,-0.0119 z"
       id="path32259" />
    <text
       xml:space="preserve"
       style="font-style:normal;font-variant:normal;font-weight:normal;font-stretch:normal;font-size:52.8577px;line-height:1.25;font-family:FreeMono;-inkscape-font-specification:FreeMono;stroke-width:3.96435"
       x="41.26181"
       y="78.769318"
       id="text35363"
       transform="scale(0.9863242,1.0138654)"><tspan
         sodipodi:role="line"
         id="tspan35361"
         x="41.26181"
         y="78.769318"
         style="stroke-width:3.96435" /></text>
    <text
       xml:space="preserve"
       style="font-style:normal;font-variant:normal;font-weight:normal;font-stretch:normal;font-size:42.2865px;line-height:1.25;font-family:FreeMono;-inkscape-font-specification:FreeMono;stroke-width:3.96435"
       x="41.26181"
       y="78.769318"
       id="text41043"
       transform="scale(0.9863242,1.0138654)"><tspan
         sodipodi:role="line"
         id="tspan41041"
         x="41.26181"
         y="78.769318"
         style="stroke-width:3.96435" /></text>
    <text
       xml:space="preserve"
       style="font-style:normal;font-variant:normal;font-weight:normal;font-stretch:normal;font-size:42.2865px;line-height:1.25;font-family:FreeMono;-inkscape-font-specification:FreeMono;stroke-width:3.96435"
       x="21.440098"
       y="78.769318"
       id="text46650"
       transform="scale(0.9863242,1.0138654)"><tspan
         sodipodi:role="line"
         id="tspan46648"
         x="21.440098"
         y="78.769318"
         style="stroke-width:3.96435" /></text>
    <text
       xml:space="preserve"
       style="font-style:normal;font-variant:normal;font-weight:normal;font-stretch:normal;font-size:42.2865px;line-height:1.25;font-family:FreeMono;-inkscape-font-specification:FreeMono;fill:#ff0000;stroke-width:3.96435"
       x="1.618383"
       y="78.769318"
       id="text49052"
       transform="scale(0.9863242,1.0138654)"><tspan
         sodipodi:role="line"
         id="tspan49050"
         x="1.618383"
         y="78.769318"
         style="fill:#ff0000;stroke-width:3.96435">   <tspan
   style="fill:#ffb380;stroke-width:3.96435"
   id="tspan70979">ko</tspan></tspan></text>
    <text
       xml:space="preserve"
       style="font-size:79.2868px;line-height:1.25;font-family:sans-serif;fill:#d45500;stroke-width:3.96435"
       x="21.440098"
       y="98.591049"
       id="text88423"
       transform="scale(0.9863242,1.0138654)"><tspan
         sodipodi:role="line"
         id="tspan88421"
         x="21.440098"
         y="98.591049"
         style="font-size:79.2868px;fill:#d45500;stroke-width:3.96435">D</tspan></text>
    <text
       xml:space="preserve"
       style="font-size:10.6667px;line-height:1.25;font-family:sans-serif"
       x="80"
       y="115"
       id="text98547"><tspan
         sodipodi:role="line"
         id="tspan98545"
         x="80"
         y="115">tektech</tspan></text>
  </g>
</svg>
