<?xml version="1.0" encoding="UTF-8" standalone="no"?>
<!-- Created with Inkscape (http://www.inkscape.org/) -->

<svg
   width="32.0px"
   height="32.0px"
   viewBox="0 0 32.0 32.0"
   version="1.1"
   id="SVGRoot"
   sodipodi:docname="deiko.svg"
   inkscape:version="1.1.1 (26b7af14f2, 2022-01-19)"
   xmlns:inkscape="http://www.inkscape.org/namespaces/inkscape"
   xmlns:sodipodi="http://sodipodi.sourceforge.net/DTD/sodipodi-0.dtd"
   xmlns="http://www.w3.org/2000/svg"
   xmlns:svg="http://www.w3.org/2000/svg">
  <sodipodi:namedview
     id="namedview31972"
     pagecolor="#ffffff"
     bordercolor="#666666"
     borderopacity="1.0"
     inkscape:pageshadow="2"
     inkscape:pageopacity="0.0"
     inkscape:pagecheckerboard="0"
     inkscape:document-units="px"
     showgrid="true"
     inkscape:zoom="7.7766379"
     inkscape:cx="23.853496"
     inkscape:cy="26.618187"
     inkscape:window-width="1366"
     inkscape:window-height="746"
     inkscape:window-x="0"
     inkscape:window-y="1"
     inkscape:window-maximized="1"
     inkscape:current-layer="layer1">
    <inkscape:grid
       type="xygrid"
       id="grid31978" />
  </sodipodi:namedview>
  <defs
     id="defs31967" />
  <g
     inkscape:label="Layer 1"
     inkscape:groupmode="layer"
     id="layer1">
    <circle
       style="fill:#501616"
       id="path32025"
       cx="16"
       cy="16"
       r="16" />
    <path
       style="fill:#550000"
       id="path32049"
       sodipodi:type="arc"
       sodipodi:cx="12.5"
       sodipodi:cy="15"
       sodipodi:rx="5.5"
       sodipodi:ry="5"
       sodipodi:start="6.2364569"
       sodipodi:end="4.8848504"
       sodipodi:arc-type="arc"
       d="M 17.993996,14.766443 A 5.5,5 0 0 1 14.563689,19.634687 5.5,5 0 0 1 8.3742631,18.306429 5.5,5 0 0 1 7.7008803,12.55753 5.5,5 0 0 1 13.443843,10.074173"
       sodipodi:open="true" />
    <path
       style="fill:#550000"
       id="path32049-7"
       sodipodi:type="arc"
       sodipodi:cx="11"
       sodipodi:cy="19"
       sodipodi:rx="5.5"
       sodipodi:ry="5"
       sodipodi:start="6.2364569"
       sodipodi:end="4.8848504"
       sodipodi:arc-type="arc"
       sodipodi:open="true"
       d="M 16.493996,18.766443 A 5.5,5 0 0 1 13.063689,23.634687 5.5,5 0 0 1 6.8742631,22.306429 5.5,5 0 0 1 6.2008803,16.55753 5.5,5 0 0 1 11.943843,14.074173" />
    <path
       style="fill:#550000"
       id="path32049-5"
       sodipodi:type="arc"
       sodipodi:cx="15"
       sodipodi:cy="17"
       sodipodi:rx="5.5"
       sodipodi:ry="5"
       sodipodi:start="6.2364569"
       sodipodi:end="4.8848504"
       sodipodi:arc-type="arc"
       sodipodi:open="true"
       d="M 20.493996,16.766443 A 5.5,5 0 0 1 17.063689,21.634687 5.5,5 0 0 1 10.874263,20.306429 5.5,5 0 0 1 10.20088,14.55753 5.5,5 0 0 1 15.943843,12.074173" />
    <path
       style="fill:#501616"
       id="path32049-3"
       sodipodi:type="arc"
       sodipodi:cx="12"
       sodipodi:cy="24"
       sodipodi:rx="5.5"
       sodipodi:ry="5"
       sodipodi:start="6.2364569"
       sodipodi:end="4.8848504"
       sodipodi:arc-type="arc"
       sodipodi:open="true"
       d="M 17.493996,23.766443 A 5.5,5 0 0 1 14.063689,28.634687 5.5,5 0 0 1 7.8742631,27.306429 5.5,5 0 0 1 7.2008803,21.55753 5.5,5 0 0 1 12.943843,19.074173" />
    <path
       style="fill:#550000"
       id="path32098"
       sodipodi:type="arc"
       sodipodi:cx="12.5"
       sodipodi:cy="14"
       sodipodi:rx="0.5"
       sodipodi:ry="1"
       sodipodi:start="0"
       sodipodi:end="6.27582"
       sodipodi:arc-type="slice"
       d="m 13,14 a 0.5,1 0 0 1 -0.499079,0.999998 0.5,1 0 0 1 -0.500918,-0.996315 0.5,1 0 0 1 0.497235,-1.003668 0.5,1 0 0 1 0.502748,0.99262 L 12.5,14 Z" />
    <path
       style="fill:#550000"
       id="path32100"
       sodipodi:type="arc"
       sodipodi:cx="19.5"
       sodipodi:cy="16.5"
       sodipodi:rx="0.5"
       sodipodi:ry="0.5"
       sodipodi:start="0"
       sodipodi:end="4.884845"
       sodipodi:open="true"
       sodipodi:arc-type="arc"
       d="m 20,16.5 a 0.5,0.5 0 0 1 -0.328746,0.469757 0.5,0.5 0 0 1 -0.553942,-0.147966 0.5,0.5 0 0 1 -0.05071,-0.571116 0.5,0.5 0 0 1 0.519203,-0.243258" />
    <path
       style="fill:#550000"
       id="path32102"
       sodipodi:type="arc"
       sodipodi:cx="16.5"
       sodipodi:cy="19.5"
       sodipodi:rx="0.5"
       sodipodi:ry="0.5"
       sodipodi:start="0"
       sodipodi:end="4.884845"
       sodipodi:open="true"
       sodipodi:arc-type="arc"
       d="m 17,19.5 a 0.5,0.5 0 0 1 -0.328746,0.469757 0.5,0.5 0 0 1 -0.553942,-0.147966 0.5,0.5 0 0 1 -0.05071,-0.571116 0.5,0.5 0 0 1 0.519203,-0.243258" />
    <path
       style="fill:#501616;stroke-width:0.053958"
       d="M 10.22504,28.022011 9.361712,27.587369 8.4309366,26.190691 7.5001612,24.794014 v -1.484571 -1.48457 L 7.0145392,20.854765 6.5289173,19.884657 V 18.547503 17.21035 l 0.4856219,-0.483372 0.485622,-0.483372 v -0.527523 -0.527524 l 0.9174401,-1.834264 0.9174401,-1.834263 h 0.4771277 0.4771279 l 1.020052,-1.5362401 1.020053,-1.5362397 1.274732,-0.426741 1.274734,-0.4267409 2.299984,2.3004508 2.299984,2.3004509 v 0.783079 0.783078 l -0.593538,0.591697 c -0.326446,0.325434 -0.593538,0.616807 -0.593538,0.647496 0,0.03069 0.267092,0.322063 0.593538,0.647496 l 0.593538,0.591698 v 1.271006 1.271007 l -0.903797,0.894604 -0.903796,0.894605 -1.780614,0.579809 c -0.979337,0.318894 -1.791642,0.590101 -1.80512,0.60268 -0.01348,0.01258 0.514635,0.562414 1.173586,1.221853 l 1.198093,1.198981 v 0.809526 0.809524 l -0.903796,0.89863 -0.903797,0.89863 -0.876182,0.436236 -0.876183,0.436235 -0.904431,-0.0031 -0.904431,-0.0031 z"
       id="path32259" />
    <text
       xml:space="preserve"
       style="font-size:13.3333px;line-height:1.25;font-family:FreeMono;-inkscape-font-specification:FreeMono;font-weight:normal;font-style:normal;font-stretch:normal;font-variant:normal"
       x="10"
       y="20"
       id="text35363"><tspan
         sodipodi:role="line"
         id="tspan35361"
         x="10"
         y="20" /></text>
    <text
       xml:space="preserve"
       style="font-size:10.6667px;line-height:1.25;font-family:FreeMono;-inkscape-font-specification:FreeMono;font-weight:normal;font-style:normal;font-stretch:normal;font-variant:normal"
       x="10"
       y="20"
       id="text41043"><tspan
         sodipodi:role="line"
         id="tspan41041"></tspan></text>
    <text
       xml:space="preserve"
       style="font-size:10.6667px;line-height:1.25;font-family:FreeMono;-inkscape-font-specification:FreeMono;font-weight:normal;font-style:normal;font-stretch:normal;font-variant:normal"
       x="5"
       y="20"
       id="text46650"><tspan
         sodipodi:role="line"
         id="tspan46648"></tspan></text>
    <text
       xml:space="preserve"
       style="font-style:normal;font-variant:normal;font-weight:normal;font-stretch:normal;font-size:10.6667px;line-height:1.25;font-family:FreeMono;-inkscape-font-specification:FreeMono;fill:#ff0000"
       x="0"
       y="20"
       id="text49052"><tspan
         sodipodi:role="line"
         id="tspan49050"
         x="0"
         y="20"
         style="fill:#ff0000">   <tspan
   style="fill:#ffb380"
   id="tspan70979">ko</tspan></tspan></text>
    <text
       xml:space="preserve"
       style="font-size:20px;line-height:1.25;font-family:sans-serif;fill:#d45500"
       x="5"
       y="25"
       id="text88423"><tspan
         sodipodi:role="line"
         id="tspan88421"
         x="5"
         y="25"
         style="font-size:20px;fill:#d45500">D</tspan></text>
  </g>
</svg>
